<?xml version="1.0" encoding="utf-8"?>
<!-- Generator: Adobe Illustrator 19.1.0, SVG Export Plug-In . SVG Version: 6.00 Build 0)  -->
<svg version="1.1" id="Layer_1" xmlns="http://www.w3.org/2000/svg" xmlns:xlink="http://www.w3.org/1999/xlink" x="0px" y="0px"
	 viewBox="0 0 228.6 135" style="enable-background:new 0 0 228.6 135;" xml:space="preserve">
<style type="text/css">
	.st0{fill:#CA9D2C;}
</style>
<path class="st0" d="M117.3,75.4c0.6-0.5,1.2-1,1.8-1.5c1.1-0.9,2.4-1.4,3.9-1.2c0.4,0.1,0.9,0.2,1.2,0.5c0.3,0.4,0,0.9-0.3,1.2
	c-1.6,1.9-3.3,3.8-4.9,5.7c-1.4,1.7-2.7,3.5-3.9,5.3c-0.2,0.3-0.4,0.8-0.4,1.2c-0.1,0.5,0.2,0.7,0.7,0.6c0.6-0.2,1.2-0.4,1.8-0.8
	c2.7-1.7,5.2-3.6,7.5-5.9c1.1-1.1,2.4-1.8,4.1-1.4c0.3,0.1,0.7,0.3,1.1,0.5c2.4-1.7,4.8-3.4,7.2-5.3c1.2-1,2.3-2.1,3.5-3.2
	c1.2-1.1,2.4-1.9,4.1-1.9c0.2,0,0.5,0,0.7,0.1c0.6,0.2,0.8,0.7,0.4,1.1c-0.4,0.4-0.8,0.8-1.3,1.1c-0.6,0.4-1.3,0.8-2,1.2
	c-0.7,0.4-1.1,1.1-1.1,1.9c0,0.8,0,1.6,0.1,2.4c0.2,3.1-0.3,6-2.3,8.5c0,0.1-0.1,0.1-0.1,0.3c0.4-0.2,0.7-0.3,0.9-0.5
	c2.7-1.5,5.1-3.4,7.5-5.3c2.4-2,5-3.8,7.5-5.6c1.7-1.2,3.5-1.8,5.6-1.6c0.5,0,1.1-0.1,1.4,0.5c0.3,0.6-0.2,1-0.6,1.4
	c-1.7,2-3.5,3.9-5.1,6c-1.2,1.4-2.2,2.9-3.2,4.4c-0.3,0.4-0.4,0.8-0.6,1.2c-0.2,0.7,0,1,0.7,0.8c0.4-0.1,0.7-0.2,1.1-0.4
	c2-1,3.8-2.4,5.5-3.8c1.1-1,2.2-2,3.4-2.9c4.1-3.1,8.4-5.9,13.5-7.2c1-0.2,2.1-0.3,3.1-0.2c1.9,0.2,2.8,1.7,2.3,3.5
	c-0.4,1.4-1.4,2.3-2.5,3.1c-2.6,1.9-5.5,3-8.4,4.1c-0.9,0.3-1.9,0.6-2.8,0.9c-0.4,0.1-0.6,0.3-0.7,0.7c-0.1,0.4-0.2,0.8-0.3,1.3
	c-0.1,1.3,0.9,2.2,2.4,1.9c1.3-0.3,2.7-0.7,3.9-1.2c2.6-1,4.9-2.7,7.1-4.4c3.3-2.6,6.4-5.2,9.3-8.2c0.3-0.3,0.4-0.5,0.2-0.9
	c-0.4-0.6-0.3-1.4,0-2c0.8-1.7,3.3-2.9,5.2-2.3c0.3,0.1,0.6,0.2,0.8,0.4c0.6,0.4,0.5,0.8,0,1.2c-0.6,0.5-1.2,1-1.7,1.6
	c-0.4,0.5-0.3,0.8,0.4,0.9c1,0.1,2,0.1,3,0.2c0.6,0.1,1.3,0.2,1.9,0.5c0.9,0.4,1.3,1.2,0.9,2.2c-0.3,0.6-0.7,1.2-1.2,1.8
	c-1.8,2.1-3.6,4.2-5.4,6.3c-0.5,0.6-0.8,1.3-1.2,2c-0.1,0.2-0.1,0.6,0.1,0.8c0.1,0.1,0.6,0.1,0.8,0c1.5-0.8,3-1.6,4.4-2.6
	c1.9-1.4,3.6-2.9,5.4-4.4c0.3-0.2,0.5-0.4,0.8-0.5c0.2-0.1,0.7,0,0.8,0.1c0.1,0.2,0.1,0.6-0.1,0.8c-0.3,0.4-0.7,0.8-1.1,1.2
	c-2.9,2.6-5.8,5.1-9.3,6.9c-1.6,0.9-3.4,1.4-5.3,1.3c-2.2-0.1-3.3-1.6-2.7-3.7c0.6-1.8,1.7-3.3,3.1-4.5c2.1-2,4.3-3.8,6.5-5.7
	c0.3-0.2,0.6-0.5,0.8-0.8c0.3-0.3,0.2-0.5-0.2-0.5c-0.8,0-1.6,0-2.4,0c-0.7,0-1.3,0.1-2,0c-0.6-0.1-1,0.1-1.4,0.5
	c-2.3,2.2-4.6,4.5-7.1,6.5c-2.8,2.3-5.6,4.7-9,6.3c-2.4,1.2-5,2.1-7.7,2.1c-1.1,0-2.3,0-3.4-0.5c-1.6-0.6-2.5-2.1-2.2-3.8
	c0.2-1,0.6-2,0.9-3c0-0.1,0.1-0.2,0.1-0.3c0,0,0-0.1,0-0.2c-0.6,0.5-1.2,1-1.7,1.5c-2.1,1.7-4.1,3.5-6.6,4.8c-1.5,0.8-3,1.3-4.8,1.3
	c-2.3,0-3.5-1.5-2.9-3.7c0.3-0.9,0.7-1.9,1.2-2.6c1.2-1.6,2.5-3.2,3.8-4.8c0.1-0.2,0.3-0.3,0.3-0.6c-0.8,0.6-1.6,1.3-2.4,1.9
	c-2.9,2.4-5.8,4.7-9.1,6.6c-3.1,1.7-6.4,2.9-9.9,3.3c-1.6,0.2-3.2,0.2-4.7-0.3c-2-0.7-3.1-2.2-3.1-4.4c0-0.3,0-0.6,0-1.1
	c-0.5,0.4-0.9,0.7-1.3,1c-1.8,1.4-3.6,2.8-5.7,3.8c-1.3,0.5-2.6,0.9-4,0.8c-2.1-0.1-3.2-1.5-2.6-3.5c0.1-0.2,0.1-0.4,0.2-0.8
	c-0.3,0.2-0.4,0.3-0.6,0.4c-2.1,1.5-4.2,2.9-6.7,3.5c-1.1,0.3-2.2,0.4-3.3,0.3c-2.6-0.4-3.3-2.1-2.8-4.4c0.2-0.8,0.5-1.6,0.9-2.5
	c-0.7,0.6-1.4,1.2-2.1,1.7c-2.1,1.7-4.2,3.3-6.8,4.4c-1.3,0.5-2.7,0.9-4.1,0.8c-2.2-0.1-3.4-1.6-2.7-3.7c0.6-1.8,1.8-3.3,3.1-4.6
	c2.1-2,4.4-3.8,6.6-5.7c0.3-0.2,0.5-0.5,0.8-0.7c0.1-0.1,0.1-0.1,0.2-0.4c-0.5-0.1-0.9-0.1-1.3-0.1c-1.3,0-2.7,0-4,0
	c-0.2,0-0.4,0.1-0.6,0.2c-3.9,2.8-7.7,5.5-11,8.9c-2,2.1-3.7,4.4-4.7,7.1c-0.6,1.6-0.9,3.3-0.4,4.9c0.2,0.6,0.6,1.1,0.9,1.6
	c0.1,0.2,0.1,0.3,0.2,0.5c-0.2,0.1-0.4,0.2-0.6,0.2c-0.5-0.3-1.1-0.5-1.5-0.9c-1.3-1.5-1.6-3.2-1.4-5.1c0.4-2.8,2-5,3.7-7.1
	c2.9-3.5,6.6-6.2,10.3-8.8c1-0.7,2.1-1.4,3.1-2.2c-0.8-2.3,0.5-4.3,3-4.8c0.7-0.1,1.4-0.1,2.1,0c0.3,0,0.7,0.3,0.9,0.6
	c0.3,0.3,0.4,0.6-0.1,1c-0.6,0.5-1.2,1-1.7,1.6c-0.5,0.6-0.4,0.9,0.4,1c1.2,0.1,2.4,0.2,3.6,0.3c0,0,0,0,0.1,0
	c2.2,0.4,2.8,1.8,1.4,3.5c-1.2,1.5-2.6,2.9-3.8,4.4c-1.1,1.4-2.1,2.8-3.1,4.3c-0.2,0.3-0.1,0.8-0.2,1.3c0.4,0,0.9,0,1.3-0.2
	c2.2-1,4.1-2.5,5.9-3.9c1.1-0.9,2.2-1.9,3.4-2.8c4.2-3.2,8.6-6,13.8-7.2c1-0.2,2.2-0.2,3.3-0.2C116.1,72.8,116.9,73.6,117.3,75.4z
	 M102,87.8c0.4-0.1,1.2-0.4,1.9-0.7c3.3-1.5,5.9-3.9,8.3-6.5c1.2-1.3,2.2-2.8,3.2-4.2c0.4-0.5,0.5-1.2,0-1.8
	c-0.5-0.5-1.2-0.5-1.8-0.3c-0.9,0.4-1.8,0.8-2.6,1.3c-3.5,2.4-6.5,5.3-9.1,8.6c-0.6,0.7-1,1.5-1.3,2.3
	C100.3,87.4,100.7,87.9,102,87.8z M137.7,75.8c-0.8,0.6-1.5,1.2-2.3,1.7c-1.7,1-3.3,2-5,3c-0.1,0.1-0.2,0.3-0.2,0.4
	c-0.2,0.5-0.2,1.2-0.5,1.6c-0.5,0.6-1.1,1-1.7,1.4c-0.8,0.5-1.5,1-1.9,1.9c-0.5,1.1,0,2.3,1.2,2.6c1,0.3,1.9,0.1,2.8-0.3
	c1.1-0.6,2-1.4,2.8-2.4C135.2,82.9,136.3,79.3,137.7,75.8z M168.7,82.4c0,0.1,0.1,0.1,0.1,0.2c0.9-0.4,1.9-0.7,2.8-1.1
	c2.2-1,4.2-2.3,5.6-4.3c0.3-0.5,0.6-1.2,0.7-1.8c0.1-0.7-0.3-1-1-0.8c-0.5,0.1-1.1,0.4-1.5,0.7c-2.2,1.5-3.9,3.5-5.5,5.6
	C169.5,81.3,169.1,81.8,168.7,82.4z"/>
<path class="st0" d="M64.4,69.3c1,0,1.8,0.1,2.5,0c1.8-0.2,3.6-0.4,5.3-0.6c0.6-0.1,0.9-0.4,1.3-0.8c0.8-0.9,1.7-1.8,2.7-2.7
	c0.6-0.5,1.4-0.8,2.2-0.7c1.2,0.1,1.6,1,0.9,1.9c-0.3,0.4-0.6,0.8-1,1.1c-1.8,1.6-3.6,3.2-5.3,4.9c-0.9,0.8-1.6,1.8-2.4,2.7
	c-0.3,0.3-0.5,0.7-1,0.5c-0.5-0.2-0.4-0.8-0.3-1.2c0.3-0.9,0.8-1.8,1.2-2.7c0.2-0.4,0.5-0.8,0.8-1.2c-0.8,0.1-1.6,0.2-2.3,0.2
	c-1.8,0.1-3.6,0.2-5.4,0.2c-0.6,0-1,0.2-1.4,0.7c-4.2,5-8.9,9.3-14.4,12.8c-4.7,3-9.7,5.2-15.3,6.1c-4.8,0.8-9.5,1-14.2-0.4
	c-2.2-0.7-4.1-1.7-5.4-3.7c-2-3-1.2-7.1,1.8-8.7c1.2-0.7,2.4-0.9,3.8-0.6c2.7,0.6,3.8,3.3,2.3,5.5c-0.5,0.7-1.1,1.2-1.6,1.8
	c-1.3,1.5-1.1,2.8,0.7,3.8c1.7,0.9,3.5,1.2,5.4,1.3c5.3,0.1,10.1-1.5,14.6-4c3.9-2.3,7.2-5.3,10.2-8.7c1.4-1.7,2.8-3.4,4.2-5.1
	c0.1-0.2,0.3-0.4,0.4-0.6c-0.2,0-0.3-0.1-0.4-0.1c-2.3,0.1-4.5,0.2-6.8,0.3c-0.3,0-0.6,0.1-0.9,0c-0.2,0-0.5-0.2-0.6-0.4
	c-0.1-0.2,0-0.6,0.1-0.7c0.4-0.3,0.8-0.6,1.2-0.6c1.7-0.2,3.4-0.4,5.1-0.5c1.1-0.1,2.1,0,3.2,0c0.4,0,0.7-0.1,0.9-0.4
	c5.7-7.4,12.4-13.7,20-19.1c0.4-0.3,0.7-0.5,1.2-0.8c-1.8-0.4-3.4-0.8-5-1.2c-3.8-0.8-7.7-1.6-11.5-2.3c-3.7-0.7-7.4-1.1-11.1-1.1
	c-4.9,0-9.7,0.5-14.1,2.6c-2.9,1.3-5.3,3.1-6.9,5.9c-3.1,5.5-1.5,11.5,4,14.6c1,0.6,2.1,0.9,3.1,1.4c0.4,0.1,0.7,0.2,0.6,0.7
	C36.7,69.9,36.3,70,36,70c-0.7-0.1-1.4-0.1-2-0.4c-4.7-1.7-7.8-4.9-8.8-9.8c-1-4.6,0.3-8.7,3.4-12.2c2.7-3,6.2-4.8,10-6
	c4.8-1.5,9.7-1.9,14.7-1.4c5.9,0.6,11.7,1.9,17.4,3.5c3.3,0.9,6.6,1.8,9.9,2.7c0.3,0.1,0.8,0,1.1-0.1c4.1-1.9,8.3-2.9,12.9-2.8
	c1.7,0,3.4,0.3,4.9,1.1c0.8,0.4,1.4,1,1.7,1.9c0.3,1.2-0.1,2.3-1.3,3.1c-1.2,0.8-2.6,1.2-4.1,1.2c-3.3,0.2-6.6,0-9.9-0.5
	c-1.2-0.2-2.5-0.4-3.7-0.5c-0.4,0-0.9,0.2-1.2,0.5c-1.8,1.7-3.6,3.3-5.3,5.1c-3.5,3.7-6.5,7.8-9.6,11.8
	C65.6,67.8,65.1,68.5,64.4,69.3z M84.8,47.4c0.3,0.1,0.5,0.2,0.7,0.2c2.3,0.4,4.5,0.9,6.8,1.2c1.4,0.2,2.8,0.1,4.2,0
	c0.8-0.1,1.6-0.4,2.3-0.9c0.8-0.5,0.7-1.4-0.1-1.8c-0.4-0.2-0.8-0.4-1.3-0.6c-2.7-0.7-5.4-0.6-8,0.1C87.9,46,86.4,46.6,84.8,47.4z"
	/>
<path d="M134.3,56.2c-0.9,0.2-1.5,0-1.8-0.7c-0.8-1.6-1.7-3.1-2.5-4.7c-0.1-0.1-0.2-0.2-0.4-0.4c0,0.5-0.1,0.8-0.1,1.2
	c-0.1,1.4-1.3,2.5-2.7,2.5c-0.9,0-1.2-0.3-1.4-1.6c-0.1-0.4-0.1-0.8-0.1-1.2c0-3.3,0-6.5-0.1-9.8c0-0.4-0.3-0.9-0.6-1.3
	c-1.3-1.9-2.7-3.7-4-5.5c-0.3-0.4-0.6-0.4-0.9-0.1c-1,0.9-1.9,1.7-2.8,2.6c-0.3,0.3-0.6,0.9-0.7,1.4c-0.1,0.5-0.3,0.8-0.9,0.9
	c-1.6,0.4-3.1,0.5-4.7,0.4c-2-0.1-4.1-0.1-6.1-0.2c-1.8-0.1-3.7-0.2-5.5-0.3c-1.6-0.1-3.2-0.2-4.9-0.3c-1.6-0.2-3-0.7-3.5-2.5
	c-0.2-0.7-0.2-1.2,0.6-1.6c-0.5-0.5-0.9-1-1.4-1.5c-2-2-4-3.9-6-5.9c-1.5-1.4-3-2.9-4.5-4.3c-0.2-0.2-0.5-0.2-0.8-0.2
	c-0.5,0-1,0-1.4,0c0-0.1,0-0.2-0.1-0.3c0.5-0.4,1-0.7,1.5-1.1c0.1-0.1,0.2-0.2,0.4-0.2c0.8-0.6,1.1-0.6,1.8,0.1
	c0.8,0.7,1.5,1.5,2.3,2.2c1.7,1.6,3.3,3.1,5,4.7c2,1.8,4,3.7,5.9,5.5c0.2,0.2,0.2,0.7,0.4,1c0.1,0.2,0.2,0.6,0.4,0.6
	c0.4,0.1,0.8,0,1.2,0c-0.1-0.3,0-0.8-0.2-1c-1.1-1.1-2.3-2.2-3.5-3.3c-2.3-2.1-4.5-4.1-6.8-6.2c-1.8-1.6-3.5-3.2-5.3-4.9
	c-0.3-0.3-0.6-0.3-1-0.1c-4.5,3.1-9,6.1-13.5,9.2c-0.9,0.6-1.9,1.2-2.8,1.8c-0.3,0.2-0.6,0.2-0.9,0.4c-0.2,0.1-0.5,0.3-0.7,0.4
	c-0.3,0.2-0.5,0.5-0.7,0.8c-0.1,0-0.1,0-0.2-0.1c0-0.2,0-0.4,0-0.6c0.2-1,0.5-2.1,0.7-3.1c0-0.2-0.1-0.4-0.1-0.6
	c-0.2,0.1-0.4,0.2-0.6,0.3c-0.6,0.9-1.3,1.7-1.9,2.7c-0.5,0.8-1.4,1-2.2,0.9c-0.6,0-1.3-0.2-1.8-0.5C53,31,51.4,30,49.9,29.1
	c-0.2-0.1-0.3-0.4-0.5-0.6c0.2-0.1,0.5-0.2,0.7-0.2c0.5,0,1,0,1.5,0c0.5,0,1-0.1,1.4,0.4c0.1,0.1,0.4,0.1,0.6,0.1
	c0.1-0.1,0.2-0.3,0.2-0.5c0-1.7,0-3.4-0.1-5.1c0-0.3-0.1-0.7,0.4-0.6c0.4,0.1,0.6,0.4,0.5,0.8c-0.1,1.1-0.2,2.2-0.2,3.2
	c0,0.3,0.1,0.6,0.2,0.8c1-0.1,1.9-0.3,2.8-0.2c0.8,0,1.6,0.3,2.4,0.5c0.2,0,0.4-0.1,0.6-0.2c0.2-0.1,0.4-0.4,0.6-0.4
	c1.2,0,2.1-0.6,3.1-1c3.5-1.7,6.9-3.3,10.4-5c1.2-0.6,2.4-1.1,3.5-1.7c0.8-0.4,1.5-0.4,2.2,0.1c1.1,0.8,2.3,1.7,3.3,2.6
	c2.8,2.6,5.6,5.3,8.5,7.8c0.4,0.4,1,0.6,1.6,0.8c0.9,0.3,1.9,0.6,2.8,0.9c0.7,0.2,1.3,0.4,2.1,0.7c-1.4,0.5-2.7-0.3-4.1-0.1
	c0.6,0.5,1.1,1,1.6,1.5c0.5,0.5,1.1,0.8,1.1,1.6c0,0.1,0.2,0.2,0.4,0.2c0.6,0.1,1.1,0.2,1.7,0.2c3.3,0.3,6.7,0.6,10,1
	c0.7,0.1,1.4,0.1,2.1,0.2c-0.1-0.2-0.1-0.3-0.2-0.4c-1-0.9-2-1.7-3-2.5c-0.5-0.4-0.6-0.6,0-0.9c0.7-0.3,1.4-0.5,2.1-0.8
	c1.5-0.5,3-0.9,4.6-1.4c1.1-0.3,2.3-0.7,3.4-1c0.8-0.3,1.7-0.5,2.5-0.9c0.5-0.2,0.9-0.1,1.2,0.3c0.9,1.2,1.8,2.4,2.7,3.6
	c1.1,1.5,2.1,3,3.2,4.5c0.1,0.2,0.5,0.3,0.7,0.4c0.4,0.2,0.8,0.3,1.1,0.6c0.4,0.4,0.9,0.6,1.4,0.7c0.5,0.1,0.9,0.2,0.8,0.8
	c0,0.2,0.1,0.4,0.1,0.5c0.1,0.8-0.1,1-0.9,1.1c-0.4,0.1-0.8,0.2-1.1,0.4c-0.6,0.4-1.3,0.2-1.5-0.4c-0.4,0.3-0.6,1-0.5,1.4
	c0.1,0.2,0.1,0.5,0.1,0.7c0.1,1.4,0.1,2.8,0.1,4.2c0,0.1,0.2,0.4,0.4,0.4c0.4,0.1,0.7,0.1,1.1,0.1c0.8,0,1.4,0.3,1.7,1.1
	c0,0.1,0.1,0.1,0.1,0.2c0,0,0.1,0.1,0,0c0.8-0.6,1.5-1.4,2.4-1.8c0.8-0.4,1.8-0.4,2.7-0.6c0.9-0.2,1.7-0.3,2.6-0.5
	c0.6-0.1,1.2-0.3,1.9-0.4c1.9-0.3,3.7-0.6,5.6-0.9c1.5-0.3,3-0.6,4.5-0.9c0.7-0.1,1.4-0.3,2.1-0.3c0.2,0,0.5,0.1,0.7,0.3
	c2.3,2.2,4.7,4.4,7,6.6c2.2,2.1,4.4,4.2,6.6,6.2c0.2,0.2,0.4,0.4,0.6,0.7c-0.8,0.1-1.2-0.2-1.7-0.6c-1.1-1-2.2-2-3.3-3.1
	c-2.2-2.1-4.4-4.1-6.6-6.2c-1.1-1-2.1-2-3.2-3c-0.3-0.3-0.4-0.3-0.7-0.1c-2,1.5-4,2.9-6.1,4.4c-1.8,1.3-3.6,2.6-5.4,3.8
	c-1.6,1-3.2,2-4.8,2.9c-0.9,0.6-1.8,0.5-2.4-0.7c-1-1.9-2-3.8-3.1-5.6c-0.1-0.2-0.3-0.3-0.4-0.4c-0.1,0-0.1,0.1-0.2,0.1
	c0,0.2,0,0.3,0.1,0.5c1,1.8,2.1,3.7,3.1,5.5C134.1,55.8,134.2,56,134.3,56.2z M128.9,40.3c0-0.4,0-0.8-0.1-1.1
	c-0.1-0.2-0.3-0.4-0.4-0.5c-0.5-0.1-0.8-0.3-1.1-0.7c-1.4-2.1-2.9-4.2-4.3-6.3c-0.4-0.6-0.9-1.2-1.3-1.9c-0.2,0.1-0.3,0.2-0.4,0.3
	c-0.6,0.6-1.2,1.2-1.7,1.8c-1.7,1.7-3.5,3.4-5.2,5.1c-0.2,0.2-0.1,0.5-0.2,0.8c0.4,0.1,0.7,0.2,1.1,0.2c0.1,0,0.2-0.3,0.3-0.5
	c0.2-0.3,0.3-0.7,0.5-1c1.7-1.8,3.3-3.6,5-5.3c0.5-0.5,0.6-0.5,1,0.1c1.2,1.7,2.3,3.3,3.5,4.9c0.8,1.1,1.6,2.1,1.1,3.5
	c0,0.1,0.1,0.4,0.2,0.5C127.6,40.3,128.3,40.3,128.9,40.3z M126.2,41.6c0,0.3,0,0.5,0,0.7c0,3.3,0,6.7,0,10c0,0.4,0,0.7,0.6,0.7
	c0.6,0,0.5-0.3,0.5-0.7c0-3.3,0-6.7,0-10C127.3,41.4,127.3,41.4,126.2,41.6z M95,37.5c0,0.1,0,0.1,0,0.2c5.7,0.4,11.4,0.7,17.1,1.1
	c0-0.1,0-0.2,0.1-0.2c-0.2-0.1-0.3-0.2-0.5-0.2c-0.4,0-0.8,0-1.1-0.1c-3.7-0.3-7.5-0.6-11.2-0.9C97.9,37.2,96.4,36.8,95,37.5z"/>
<path d="M73.2,96.7c0-0.7,0-1.4,0-2.2c44.2,0,88.3,0,132.5,0c0,0.7,0,1.4,0,2.2C161.5,96.7,117.4,96.7,73.2,96.7z"/>
<path d="M73.2,126c0-0.7,0-1.4,0-2.2c44.2,0,88.3,0,132.5,0c0,0.7,0,1.4,0,2.2C161.5,126,117.4,126,73.2,126z"/>
<path d="M129.4,120.5c0-0.4,0-0.8,0-1.1c0-0.1,0-0.2,0-0.4c0.6-0.1,1.1-0.1,1.6-0.2c0.7-0.1,1.1-0.6,1.2-1.3c0-0.5,0.1-0.9,0.1-1.4
	c0-4.4,0-8.7,0-13.1c0-0.4,0-0.9,0-1.3c-0.1-0.9-0.4-1.2-1.3-1.3c-0.5,0-1,0-1.5,0c0-0.5,0-1,0-1.5c0.1,0,0.1-0.1,0.2-0.1
	c2.1,0,4.2,0,6.3,0c0.5,0,0.5,0.3,0.6,0.6c2,5.1,3.9,10.3,5.9,15.4c0.1,0.2,0.1,0.3,0.2,0.6c0.1-0.3,0.2-0.4,0.3-0.6
	c1.9-5.1,3.8-10.2,5.6-15.3c0.2-0.5,0.4-0.7,1-0.7c2,0,3.9,0,5.9,0c0,0.5,0,1,0,1.5c-0.4,0-0.9,0-1.3,0c-0.8,0.1-1.1,0.4-1.2,1.2
	c-0.1,0.4-0.1,0.8-0.1,1.2c0,4.4,0,8.9,0,13.3c0,0.5,0,1,0.1,1.4c0.1,0.9,0.4,1.2,1.3,1.3c0.4,0,0.8,0,1.3,0.1c0,0.5,0,0.9,0,1.4
	c-2.8,0-5.5,0-8.3,0c0-0.5,0-0.9,0-1.4c0.5,0,1,0,1.4-0.1c0.7-0.1,1.1-0.5,1.1-1.1c0-0.2,0.1-0.4,0.1-0.6c0-5,0-9.9,0-15.1
	c-0.1,0.3-0.2,0.5-0.3,0.6c-2.1,5.7-4.2,11.4-6.3,17.1c-0.2,0.4-0.3,0.7-0.8,0.6c-0.5-0.1-1.1,0.2-1.4-0.6
	c-2.1-5.7-4.3-11.3-6.4-16.9c-0.1-0.1-0.1-0.3-0.2-0.4c0,0.1-0.1,0.1-0.1,0.1c0,4.8,0,9.6,0,14.4c0,1.5,0.5,1.9,2,2
	c0.3,0,0.7,0.1,0.7,0.2c0.1,0.4,0,0.8,0,1.2c0,0.1-0.2,0.1-0.3,0.1C134.4,120.5,131.9,120.5,129.4,120.5z"/>
<path d="M89.5,99c2.8,0,5.6,0,8.4,0c0,0.5,0,0.9,0,1.5c-0.4,0-0.8,0-1.3,0c-0.9,0.1-1.2,0.4-1.3,1.2c0,0.3,0,0.5,0,0.8
	c0,4.8,0,9.6,0,14.4c0,1.9,0.1,2,2,2c0.2,0,0.3,0,0.6,0c0,0.5,0,1,0,1.5c-2.8,0-5.6,0-8.4,0c0-0.4,0-0.8,0-1.2
	c0-0.1,0.3-0.3,0.4-0.3c0.5-0.1,1-0.1,1.5-0.1c0.5,0,0.8-0.3,0.8-0.8c0-2.1,0-4.1,0-6.2c0-0.5,0-1,0-1.5c-3.7,0-7.3,0-11,0
	c0,0.5,0,1,0,1.4c0,1.8,0,3.7,0,5.5c0,1.4,0.2,1.6,1.6,1.7c0.3,0,0.7,0,1.1,0c0,0.4,0,0.9,0,1.2c0,0.1-0.3,0.3-0.4,0.3
	c-2.7,0-5.4,0-8.1,0c0-0.5,0-1,0-1.5c0.5,0,1.1-0.1,1.6-0.1c0.6,0,0.8-0.3,0.9-0.8c0-0.3,0.1-0.6,0.1-0.9c0-5,0-9.9,0-14.9
	c0-0.2,0-0.5,0-0.7c-0.1-0.8-0.5-1.1-1.2-1.1c-0.4,0-0.9,0-1.4,0c0-0.3,0-0.5,0-0.7c0-0.2,0-0.5,0-0.7c0.2,0,0.4-0.1,0.5-0.1
	c2.5,0,5,0,7.5,0c0.7,0,0.6,0.4,0.6,0.8c0,0.4,0.1,0.8-0.6,0.7c-1.9,0-2.1,0.3-2.1,2.1c0,1.9,0,3.8,0,5.7c3.7,0,7.3,0,11,0
	c0-0.3,0-0.6,0-0.9c0-1.8,0-3.5,0-5.3c0-1.2-0.4-1.6-1.6-1.7C89.3,100.5,89.3,100.5,89.5,99z"/>
<path d="M160.3,120.5c0-0.5,0-0.9,0-1.4c0.5,0,1,0,1.4-0.1c0.8-0.1,1.2-0.4,1.2-1.2c0-1.1,0.1-2.2,0.1-3.3c0-3.9,0-7.7,0-11.6
	c0-2-0.2-2.2-2.3-2.3c-0.1,0-0.2,0-0.4,0c0-0.5,0-0.9,0-1.4c0.2,0,0.4,0,0.7,0c5.5,0,11,0,16.5,0c0.4,0,0.6,0,0.8,0.4
	c0.6,1.7,1.2,3.3,1.8,5c0,0.1,0,0.2,0.1,0.3c-0.4,0.2-0.8,0.4-1.3,0.4c-0.1,0-0.4-0.2-0.5-0.3c-0.6-0.8-1-1.7-1.7-2.5
	c-0.8-0.9-1.9-1.4-3.2-1.4c-2.4,0-4.9,0-7.4,0c0,2.5,0,4.9,0,7.6c1.3-0.1,2.5,0,3.7-0.2c1.1-0.2,1.9-1.1,2-2.2c0-0.5,0.1-1,0.1-1.5
	c0.5,0,0.9,0,1.4,0c0.1,0,0.3,0.3,0.3,0.5c0,2.1,0,4.2,0,6.2c0,0.9,0,1.8,0,2.7c-0.6,0-1.1,0-1.7,0c0-0.5-0.1-1-0.1-1.5
	c-0.1-1.5-0.8-2.3-2.4-2.4c-1-0.1-2,0-3,0c-0.1,0-0.2,0-0.4,0.1c0,0.8,0,1.6,0,2.4c0,1.7,0,3.4,0,5.1c0,0.5,0.1,0.9,0.7,0.9
	c2.4,0,4.8,0.2,7.1-0.3c2.5-0.5,4.1-2.2,5.2-4.5c0.1-0.2,0.2-0.5,0.3-0.7c0.1,0,0.2,0,0.2,0c1.8,0.6,1.5,0.2,1,1.8
	c-0.6,1.7-1.2,3.4-1.8,5.1c-0.1,0.3-0.2,0.5-0.6,0.5c-5.9,0-11.8,0-17.6,0C160.6,120.5,160.5,120.5,160.3,120.5z"/>
<path d="M124.8,109.6c0,6.6-4.6,11.2-11.2,11.2c-6.4,0-11.2-4.6-11.2-11c0-6.5,4.8-11.2,11.4-11.2
	C120.1,98.6,124.8,103.4,124.8,109.6z M121.3,109.6c-0.1-1-0.2-2-0.4-3c-0.4-1.8-1.1-3.4-2.5-4.6c-2.9-2.4-8-1.8-10.3,1.4
	c-1.7,2.3-2,4.9-1.9,7.6c0.1,1.9,0.6,3.6,1.7,5.2c2.8,4,9.3,4.2,11.9-0.5C120.7,113.7,121.2,111.7,121.3,109.6z"/>
<path d="M188.5,118.6c-0.2,0.4-0.3,0.8-0.4,1.2c-0.1,0.6-0.4,0.8-1.1,0.7c-0.1,0-0.3,0-0.5,0c-0.5-2.6-1-5.2-1.5-7.8
	c0.1-0.1,0.1-0.1,0.1-0.1c1.4-0.4,1.4-0.4,2,0.8c1.3,2.6,3.1,4.5,6,5.2c2.2,0.6,4.2,0.1,5.9-1.5c1.5-1.4,1.3-3.7-0.6-4.6
	c-1.6-0.8-3.3-1.2-5-1.8c-1.6-0.6-3.4-1-4.9-1.7c-2.5-1.2-3.6-3.6-2.9-5.9c0.3-1.2,1.1-2.1,2.1-2.8c2.9-2.1,7.6-2.2,10.9,0.1
	c0.3-0.9,0.6-1.8,1.9-1.3c0.5,2.1,1.1,4.4,1.7,6.6c-0.5,0.2-1.1,0.3-1.5,0.5c-0.6-0.9-1.2-1.8-1.8-2.6c-1.4-1.7-3.2-2.9-5.5-3
	c-1.4-0.1-2.7,0.2-3.8,1c-1.6,1.2-1.6,3.1,0,4.2c0.9,0.6,1.9,1,3,1.3c2.3,0.8,4.6,1.4,6.9,2.3c2,0.8,3.4,2.3,3.6,4.5
	c0.2,2.6-1.1,4.5-3.2,5.6c-3.3,1.8-6.7,1.8-10-0.1C189.4,119.2,189,118.9,188.5,118.6z"/>
<path class="st0" d="M164.1,64.1c0.1-2.1,0.8-3.6,3.4-3.8c0.5,0,1.1-0.1,1.6,0c1.1,0.2,1.5,1,1.1,1.9c-0.2,0.5-0.6,1-0.9,1.4
	c-1,1-2.2,1.7-3.6,2.1c-0.9,0.2-1.2,0-1.4-0.8C164.2,64.5,164.1,64.3,164.1,64.1z"/>
<path d="M44.9,23.3c0.3-0.7,0.9-0.8,1.4-0.9c1.5-0.3,1.8,0.1,1.8,1.6C48,26.8,48,29.8,48,32.7c0,0.3,0,0.6-0.1,0.9
	c-0.1,0.2-0.3,0.3-0.5,0.4c-0.1,0-0.4-0.3-0.4-0.4c-0.1-3-0.1-5.9-0.1-8.9c0-0.5,0.1-1.1,0.1-1.8C46.3,23.4,45.6,23.6,44.9,23.3z"/>
<path d="M152.3,53.4c0.7-0.7,0.7-2,0.1-2.5c-0.7-0.6-1.2-0.4-2.1,0.9c-0.1-0.1-0.2-0.1-0.2-0.2c-0.3-1.1,0.7-2.3,1.9-2.2
	c1.5,0.1,2.4,1.2,2.2,2.5c-0.1,0.5-0.1,1-0.3,1.4C153.6,54.1,152.8,54.1,152.3,53.4z"/>
<path d="M49.3,17.9c-0.1,0.4-0.1,0.8-0.2,1.2c0,0.1-0.2,0.2-0.2,0.2c-0.1-0.1-0.3-0.2-0.2-0.3c0.1-0.4,0.3-0.8,0.4-1.1
	C49.1,17.9,49.2,17.9,49.3,17.9z"/>
<path d="M48.4,21.4c-0.2,0.2-0.3,0.5-0.5,0.7c-0.1,0-0.1,0-0.2,0c0-0.2-0.1-0.5,0-0.7c0.1-0.1,0.4-0.1,0.6-0.2
	C48.3,21.2,48.4,21.3,48.4,21.4z"/>
<path d="M98.9,32.5c0.4,0,0.8,0,1.2,0c0,0.1,0,0.1,0,0.2c-0.4,0-0.8,0-1.2,0C98.9,32.6,98.9,32.5,98.9,32.5z"/>
</svg>
